<svg width="82" height="95" viewBox="0 0 82 95" fill="none" xmlns="http://www.w3.org/2000/svg">
<path d="M47.5 52.5C47.5 78.7335 73.7335 95 47.5 95C21.2665 95 0 73.7335 0 47.5C0 21.2665 21.2665 0 47.5 0C73.7335 0 47.5 26.2665 47.5 52.5Z" fill="#3A1C36"/>
<circle cx="47.4989" cy="47.5008" r="33.9286" fill="white"/>
<path fill-rule="evenodd" clip-rule="evenodd" d="M46.9987 61.334C54.3625 61.334 60.332 55.3644 60.332 48.0007C60.332 40.6369 54.3625 34.6673 46.9987 34.6673C39.6349 34.6673 33.6654 40.6369 33.6654 48.0007C33.6654 55.3644 39.6349 61.334 46.9987 61.334ZM46.9987 64.6673C56.2034 64.6673 63.6654 57.2054 63.6654 48.0007C63.6654 38.7959 56.2034 31.334 46.9987 31.334C37.794 31.334 30.332 38.7959 30.332 48.0007C30.332 57.2054 37.794 64.6673 46.9987 64.6673Z" fill="#3A1C36"/>
<path fill-rule="evenodd" clip-rule="evenodd" d="M46.9987 38C47.9192 38 48.6654 38.7462 48.6654 39.6667V47.3096L52.3439 50.9882C52.9947 51.639 52.9947 52.6943 52.3439 53.3452C51.693 53.9961 50.6377 53.9961 49.9869 53.3452L45.8202 49.1785C45.5076 48.8659 45.332 48.442 45.332 48V39.6667C45.332 38.7462 46.0782 38 46.9987 38Z" fill="#3A1C36"/>
</svg>
