<svg width="82" height="95" viewBox="0 0 82 95" fill="none" xmlns="http://www.w3.org/2000/svg">
<path d="M47.5 52.5C47.5 78.7335 73.7335 95 47.5 95C21.2665 95 0 73.7335 0 47.5C0 21.2665 21.2665 0 47.5 0C73.7335 0 47.5 26.2665 47.5 52.5Z" fill="#51734E"/>
<circle cx="47.4989" cy="47.5008" r="33.9286" fill="white"/>
<path fill-rule="evenodd" clip-rule="evenodd" d="M43.6814 42.7731C43.5256 43.1461 43.1744 43.4008 42.7715 43.433L35.4497 44.0177C34.4916 44.0942 34.104 45.2906 34.8351 45.9144L40.4073 50.6691C40.716 50.9325 40.8508 51.3467 40.7563 51.7413L39.0529 58.8551C38.8294 59.7882 39.8436 60.527 40.6633 60.0283L46.94 56.2094C47.2846 55.9997 47.7173 55.9997 48.0619 56.2094L54.3386 60.0283C55.1583 60.527 56.1725 59.7882 55.9491 58.8551L54.2456 51.7413C54.1511 51.3467 54.2859 50.9325 54.5946 50.6691L60.1668 45.9144C60.8979 45.2905 60.5103 44.0942 59.5522 44.0177L52.2305 43.433C51.8275 43.4008 51.4763 43.1461 51.3205 42.7731L48.4968 36.0104C48.1275 35.1259 46.8744 35.1259 46.5051 36.0104L43.6814 42.7731ZM53.6947 40.4568L51.3421 34.8223C49.9176 31.4108 45.0843 31.4108 43.6598 34.8223L41.3072 40.4568L35.2042 40.9442C31.509 41.2393 30.0138 45.8537 32.8337 48.2599L37.4718 52.2175L36.0543 58.137C35.1924 61.7361 39.1043 64.586 42.2659 62.6624L47.501 59.4773L52.736 62.6624C55.8976 64.5861 59.8095 61.7361 58.9476 58.137L57.5301 52.2175L62.1682 48.2599C64.9882 45.8537 63.4929 41.2393 59.7977 40.9442L53.6947 40.4568Z" fill="#51734E"/>
</svg>
