<svg width="82" height="95" viewBox="0 0 82 95" fill="none" xmlns="http://www.w3.org/2000/svg">
<path d="M47.5 52.5C47.5 78.7335 73.7335 95 47.5 95C21.2665 95 0 73.7335 0 47.5C0 21.2665 21.2665 0 47.5 0C73.7335 0 47.5 26.2665 47.5 52.5Z" fill="#3A1C36"/>
<circle cx="47.4989" cy="47.5008" r="33.9286" fill="white"/>
<path fill-rule="evenodd" clip-rule="evenodd" d="M33.3451 49.3861C33.9146 48.8166 34.838 48.8166 35.4075 49.3861L40.2096 54.1883C40.7792 54.7578 40.7792 55.6811 40.2096 56.2506C39.6401 56.8202 38.7168 56.8202 38.1472 56.2506L33.3451 51.4485C32.7756 50.879 32.7756 49.9556 33.3451 49.3861Z" fill="#3A1C36"/>
<path d="M61.697 38.2815C62.2433 37.6897 62.2064 36.767 61.6146 36.2207C61.0228 35.6744 60.1001 35.7113 59.5538 36.3032L43.043 54.1899C42.4967 54.7817 42.5336 55.7044 43.1254 56.2507C43.7173 56.797 44.6399 56.7601 45.1862 56.1682L55.2528 45.2627C55.5337 44.9584 56.0113 44.9489 56.3042 45.2417L58.136 47.0735C58.7055 47.643 59.6289 47.643 60.1984 47.0735C60.7679 46.504 60.7679 45.5806 60.1984 45.0111L58.2428 43.0556C57.9661 42.7788 57.9572 42.333 58.2226 42.0454L61.697 38.2815Z" fill="#3A1C36"/>
<path fill-rule="evenodd" clip-rule="evenodd" d="M38.5747 48.7824L36.0119 46.2196C34.3033 44.511 34.3033 41.7409 36.0119 40.0324L41.4914 34.5529C43.1999 32.8443 45.97 32.8444 47.6785 34.5529L50.2414 37.1157C51.9499 38.8243 51.9499 41.5944 50.2414 43.3029L44.7619 48.7824C43.0533 50.4909 40.2832 50.4909 38.5747 48.7824ZM38.0743 44.1572L40.6371 46.72C41.2066 47.2895 42.13 47.2895 42.6995 46.72L48.179 41.2405C48.7485 40.671 48.7485 39.7476 48.179 39.1781L45.6161 36.6153C45.0466 36.0458 44.1233 36.0458 43.5538 36.6153L38.0743 42.0948C37.5048 42.6643 37.5048 43.5877 38.0743 44.1572Z" fill="#3A1C36"/>
<path fill-rule="evenodd" clip-rule="evenodd" d="M41.668 59.1673C42.4734 59.1673 43.1263 58.5144 43.1263 57.709C43.1263 56.9036 42.4734 56.2507 41.668 56.2507C40.8626 56.2507 40.2096 56.9036 40.2096 57.709C40.2096 58.5144 40.8626 59.1673 41.668 59.1673ZM41.668 62.084C44.0842 62.084 46.043 60.1252 46.043 57.709C46.043 55.2927 44.0842 53.334 41.668 53.334C39.2517 53.334 37.293 55.2927 37.293 57.709C37.293 60.1252 39.2517 62.084 41.668 62.084Z" fill="#3A1C36"/>
</svg>
