<svg width="9" height="9" viewBox="0 0 9 9" fill="none" xmlns="http://www.w3.org/2000/svg">
<path d="M0.0128161 3.26571C0.0435803 3.171 0.125444 3.10198 0.22398 3.08767L2.99209 2.68541L4.23005 0.177066C4.27412 0.0877731 4.36506 0.03125 4.46464 0.03125C4.5642 0.03125 4.65515 0.0877906 4.69922 0.177066L5.93725 2.68543L8.70531 3.08767C8.80385 3.10198 8.88571 3.17101 8.91648 3.26571C8.94726 3.36041 8.92159 3.46437 8.85029 3.53387L6.84734 5.48637L7.32011 8.24334C7.33694 8.34147 7.29658 8.44067 7.21602 8.49918C7.13549 8.5577 7.02872 8.56542 6.94052 8.5191L4.46465 7.21745L1.98886 8.51912C1.95057 8.53924 1.90879 8.54917 1.86714 8.54917C1.8129 8.54917 1.75891 8.53232 1.71336 8.4992C1.6328 8.44067 1.59244 8.34149 1.60927 8.24334L2.08218 5.48637L0.0790182 3.53389C0.00770603 3.46437 -0.0179655 3.36041 0.0128161 3.26571ZM2.54585 5.20769C2.60752 5.26779 2.63567 5.3544 2.62109 5.43926L2.21455 7.80933L4.34289 6.69034C4.4191 6.65028 4.51016 6.65028 4.58637 6.69034L6.71483 7.80934L6.30841 5.43924C6.29387 5.35438 6.322 5.26781 6.38363 5.20771L8.1055 3.52921L5.7259 3.18339C5.64069 3.17101 5.56706 3.11751 5.52893 3.0403L4.46465 0.88391L3.40041 3.04028C3.36229 3.11749 3.28866 3.17101 3.20345 3.18339L0.823811 3.5292L2.54585 5.20769Z" fill="#173334"/>
<path d="M3.1697 2.77858L4.15754 1.04987C4.2913 0.815783 4.63028 0.820055 4.75811 1.05744L5.59474 2.61119C5.64056 2.69627 5.72009 2.75812 5.81383 2.78155L7.88332 3.29892C8.12898 3.36034 8.22597 3.65743 8.06386 3.85197L6.79241 5.37771C6.73153 5.45077 6.70366 5.5458 6.71546 5.64017L6.96333 7.62313C6.99683 7.89115 6.72209 8.09117 6.47731 7.97694L4.60988 7.10547C4.51782 7.06251 4.41147 7.06251 4.31941 7.10547L2.49492 7.9569C2.24154 8.07514 1.9606 7.85722 2.01213 7.58239L2.37065 5.67028C2.39154 5.55886 2.3561 5.44431 2.27594 5.36415L0.803831 3.89203C0.608544 3.69675 0.711939 3.36253 0.983385 3.31164L2.93481 2.94574C3.03383 2.92718 3.11971 2.86606 3.1697 2.77858Z" fill="#173334"/>
</svg>
