<svg width="52" height="52" viewBox="0 0 52 52" fill="none" xmlns="http://www.w3.org/2000/svg">
<path fill-rule="evenodd" clip-rule="evenodd" d="M2.6 0C1.16406 0 0 1.16406 0 2.6C0 4.03594 1.16406 5.2 2.6 5.2H5.2V41.6C5.2 47.3438 9.85624 52 15.6 52H36.4C42.1438 52 46.8 47.3438 46.8 41.6V5.2H49.4C50.8359 5.2 52 4.03594 52 2.6C52 1.16406 50.8359 0 49.4 0H2.6ZM41.6 5.2H10.4V41.6C10.4 44.4719 12.7281 46.8 15.6 46.8H36.4C39.2719 46.8 41.6 44.4719 41.6 41.6V5.2Z" fill="#173334"/>
<path d="M27.8381 13.7615C26.8227 12.7462 25.1765 12.7462 24.1611 13.7615L16.3611 21.5615C15.3458 22.5769 15.3458 24.2231 16.3611 25.2385C17.3765 26.2538 19.0227 26.2538 20.0381 25.2385L23.3996 21.877V36.4C23.3996 37.8359 24.5637 39 25.9996 39C27.4356 39 28.5996 37.8359 28.5996 36.4V21.877L31.9611 25.2385C32.9765 26.2538 34.6227 26.2538 35.6381 25.2385C36.6534 24.2231 36.6534 22.5769 35.6381 21.5615L27.8381 13.7615Z" fill="#173334"/>
</svg>
