<svg width="52" height="35" viewBox="0 0 52 35" fill="none" xmlns="http://www.w3.org/2000/svg">
<path fill-rule="evenodd" clip-rule="evenodd" d="M43.3333 4.33333H8.66667C6.27343 4.33333 4.33333 6.27343 4.33333 8.66667V26C4.33333 28.3932 6.27343 30.3333 8.66667 30.3333H43.3333C45.7266 30.3333 47.6667 28.3932 47.6667 26V8.66667C47.6667 6.27343 45.7266 4.33333 43.3333 4.33333ZM8.66667 0C3.8802 0 0 3.8802 0 8.66667V26C0 30.7865 3.8802 34.6667 8.66667 34.6667H43.3333C48.1198 34.6667 52 30.7865 52 26V8.66667C52 3.8802 48.1198 0 43.3333 0H8.66667Z" fill="#173334"/>
<path d="M34.666 13.0007C34.666 11.804 35.6361 10.834 36.8327 10.834H41.166C42.3626 10.834 43.3327 11.804 43.3327 13.0007C43.3327 14.1973 42.3626 15.1673 41.166 15.1673H36.8327C35.6361 15.1673 34.666 14.1973 34.666 13.0007Z" fill="#173334"/>
<path d="M8.66602 21.6673C8.66602 20.4707 9.63607 19.5007 10.8327 19.5007C12.0293 19.5007 12.9993 20.4707 12.9993 21.6673C12.9993 22.8639 12.0293 23.834 10.8327 23.834C9.63607 23.834 8.66602 22.8639 8.66602 21.6673Z" fill="#173334"/>
<path d="M17.3327 21.6673C17.3327 20.4707 18.3027 19.5007 19.4993 19.5007H32.4993C33.696 19.5007 34.666 20.4707 34.666 21.6673C34.666 22.8639 33.696 23.834 32.4993 23.834H19.4993C18.3027 23.834 17.3327 22.8639 17.3327 21.6673Z" fill="#173334"/>
<path d="M41.166 19.5007C39.9694 19.5007 38.9994 20.4707 38.9994 21.6673C38.9994 22.8639 39.9694 23.834 41.166 23.834C42.3626 23.834 43.3327 22.8639 43.3327 21.6673C43.3327 20.4707 42.3626 19.5007 41.166 19.5007Z" fill="#173334"/>
<path d="M28.166 10.834C26.9694 10.834 25.9993 11.804 25.9993 13.0007C25.9993 14.1973 26.9694 15.1673 28.166 15.1673C29.3626 15.1673 30.3327 14.1973 30.3327 13.0007C30.3327 11.804 29.3626 10.834 28.166 10.834Z" fill="#173334"/>
<path d="M17.3327 13.0007C17.3327 11.804 18.3027 10.834 19.4993 10.834C20.696 10.834 21.666 11.804 21.666 13.0007C21.666 14.1973 20.696 15.1673 19.4993 15.1673C18.3027 15.1673 17.3327 14.1973 17.3327 13.0007Z" fill="#173334"/>
<path d="M10.8327 10.834C9.63607 10.834 8.66602 11.804 8.66602 13.0007C8.66602 14.1973 9.63607 15.1673 10.8327 15.1673C12.0293 15.1673 12.9993 14.1973 12.9993 13.0007C12.9993 11.804 12.0293 10.834 10.8327 10.834Z" fill="#173334"/>
</svg>
