<svg width="43" height="52" viewBox="0 0 43 52" fill="none" xmlns="http://www.w3.org/2000/svg">
<path fill-rule="evenodd" clip-rule="evenodd" d="M21.2727 23.6355C17.083 23.6355 13.3509 23.7881 10.3016 23.9819C7.40931 24.1657 5.18532 26.3725 4.97775 29.2444C4.83009 31.2873 4.72727 33.44 4.72727 35.4537C4.72727 37.4673 4.83009 39.62 4.97775 41.6629C5.18532 44.5348 7.40931 46.7416 10.3016 46.9254C13.3509 47.1192 17.083 47.2718 21.2727 47.2718C25.4625 47.2718 29.1946 47.1192 32.2438 46.9254C35.1361 46.7416 37.3601 44.5348 37.5677 41.6629C37.7154 39.62 37.8182 37.4673 37.8182 35.4537C37.8182 33.44 37.7154 31.2873 37.5677 29.2444C37.3601 26.3725 35.1361 24.1657 32.2438 23.9819C29.1946 23.7881 25.4625 23.6355 21.2727 23.6355ZM10.0017 19.2641C4.75979 19.5973 0.641429 23.6647 0.262777 28.9036C0.10995 31.018 0 33.2908 0 35.4537C0 37.6165 0.10995 39.8893 0.262777 42.0037C0.641429 47.2426 4.75979 51.31 10.0017 51.6432C13.1366 51.8424 16.9696 51.9991 21.2727 51.9991C25.5758 51.9991 29.4089 51.8424 32.5437 51.6432C37.7857 51.31 41.904 47.2426 42.2827 42.0037C42.4355 39.8893 42.5455 37.6165 42.5455 35.4537C42.5455 33.2908 42.4355 31.018 42.2827 28.9036C41.904 23.6647 37.7857 19.5973 32.5437 19.2641C29.4089 19.0649 25.5758 18.9082 21.2727 18.9082C16.9696 18.9082 13.1366 19.0649 10.0017 19.2641Z" fill="#173334"/>
<path fill-rule="evenodd" clip-rule="evenodd" d="M23.6358 37.1854C25.0488 36.368 25.9995 34.8403 25.9995 33.0906C25.9995 30.4798 23.883 28.3633 21.2722 28.3633C18.6614 28.3633 16.5449 30.4798 16.5449 33.0906C16.5449 34.8403 17.4956 36.368 18.9086 37.1854V40.1815C18.9086 41.4869 19.9668 42.5451 21.2722 42.5451C22.5776 42.5451 23.6358 41.4869 23.6358 40.1815V37.1854Z" fill="#173334"/>
<path fill-rule="evenodd" clip-rule="evenodd" d="M9.45508 11.8182C9.45508 5.29118 14.7463 0 21.2733 0C27.8003 0 33.0914 5.29118 33.0914 11.8182V21.2727C33.0914 22.5781 32.0332 23.6364 30.7278 23.6364C29.4224 23.6364 28.3642 22.5781 28.3642 21.2727V11.8182C28.3642 7.90198 25.1895 4.72727 21.2733 4.72727C17.3571 4.72727 14.1824 7.90198 14.1824 11.8182V21.2727C14.1824 22.5781 13.1241 23.6364 11.8187 23.6364C10.5133 23.6364 9.45508 22.5781 9.45508 21.2727V11.8182Z" fill="#173334"/>
</svg>
