<svg width="52" height="35" viewBox="0 0 52 35" fill="none" xmlns="http://www.w3.org/2000/svg">
<path fill-rule="evenodd" clip-rule="evenodd" d="M43.3333 4.33333H8.66667C6.27343 4.33333 4.33333 6.27343 4.33333 8.66667V26C4.33333 28.3932 6.27343 30.3333 8.66667 30.3333H43.3333C45.7266 30.3333 47.6667 28.3932 47.6667 26V8.66667C47.6667 6.27343 45.7266 4.33333 43.3333 4.33333ZM8.66667 0C3.8802 0 0 3.8802 0 8.66667V26C0 30.7865 3.8802 34.6667 8.66667 34.6667H43.3333C48.1198 34.6667 52 30.7865 52 26V8.66667C52 3.8802 48.1198 0 43.3333 0H8.66667Z" fill="#173334"/>
<path d="M49.8327 12.9993C49.8327 14.196 48.8626 15.166 47.666 15.166C41.6829 15.166 36.8327 10.3158 36.8327 4.33268C36.8327 3.13607 37.8027 2.16602 38.9994 2.16602C40.196 2.16602 41.166 3.13607 41.166 4.33268C41.166 7.92253 44.0762 10.8327 47.666 10.8327C48.8626 10.8327 49.8327 11.8027 49.8327 12.9993Z" fill="#173334"/>
<path d="M4.33268 19.4993C3.13607 19.4993 2.16602 20.4694 2.16602 21.666C2.16602 22.8626 3.13607 23.8327 4.33268 23.8327C7.92253 23.8327 10.8327 26.7428 10.8327 30.3327C10.8327 31.5293 11.8027 32.4994 12.9993 32.4994C14.196 32.4994 15.166 31.5293 15.166 30.3327C15.166 24.3496 10.3158 19.4993 4.33268 19.4993Z" fill="#173334"/>
<path d="M47.666 19.4993C48.8626 19.4993 49.8327 20.4694 49.8327 21.666C49.8327 22.8626 48.8626 23.8327 47.666 23.8327C44.0762 23.8327 41.166 26.7428 41.166 30.3327C41.166 31.5293 40.196 32.4994 38.9994 32.4994C37.8027 32.4994 36.8327 31.5293 36.8327 30.3327C36.8327 24.3496 41.6829 19.4993 47.666 19.4993Z" fill="#173334"/>
<path d="M4.33268 15.166C3.13607 15.166 2.16602 14.196 2.16602 12.9993C2.16602 11.8027 3.13607 10.8327 4.33268 10.8327C7.92253 10.8327 10.8327 7.92253 10.8327 4.33268C10.8327 3.13607 11.8027 2.16602 12.9993 2.16602C14.196 2.16602 15.166 3.13607 15.166 4.33268C15.166 10.3158 10.3158 15.166 4.33268 15.166Z" fill="#173334"/>
<path fill-rule="evenodd" clip-rule="evenodd" d="M26.0007 21.666C28.3939 21.666 30.334 19.7259 30.334 17.3327C30.334 14.9394 28.3939 12.9993 26.0007 12.9993C23.6074 12.9993 21.6673 14.9394 21.6673 17.3327C21.6673 19.7259 23.6074 21.666 26.0007 21.666ZM26.0007 25.9993C30.7871 25.9993 34.6673 22.1192 34.6673 17.3327C34.6673 12.5462 30.7871 8.66602 26.0007 8.66602C21.2142 8.66602 17.334 12.5462 17.334 17.3327C17.334 22.1192 21.2142 25.9993 26.0007 25.9993Z" fill="#173334"/>
</svg>
