<svg width="52" height="50" viewBox="0 0 52 50" fill="none" xmlns="http://www.w3.org/2000/svg">
<path fill-rule="evenodd" clip-rule="evenodd" d="M19.8447 16.9362C19.5937 17.5373 19.0277 17.9478 18.3783 17.9997L6.57903 18.9419C5.03514 19.0652 4.41044 20.9932 5.58862 21.9985L14.5684 29.6608C15.0659 30.0853 15.2832 30.7529 15.1309 31.3888L12.3857 42.8527C12.0256 44.3565 13.66 45.5472 14.9809 44.7435L25.096 38.5891C25.6513 38.2513 26.3487 38.2513 26.9039 38.5891L37.0191 44.7435C38.34 45.5472 39.9744 44.3565 39.6143 42.8527L36.8691 31.3888C36.7168 30.7528 36.9341 30.0853 37.4316 29.6608L46.4114 21.9985C47.5895 20.9932 46.9648 19.0652 45.421 18.9419L33.6217 17.9997C32.9723 17.9478 32.4063 17.5373 32.1553 16.9362L27.6048 6.03789C27.0097 4.61253 24.9903 4.61253 24.3952 6.03789L19.8447 16.9362ZM35.9814 13.2034L32.19 4.12336C29.8945 -1.37448 22.1055 -1.37443 19.8099 4.12337L16.0186 13.2034L6.18348 13.9888C0.228475 14.4644 -2.18105 21.9007 2.36334 25.7783L9.83777 32.1561L7.5534 41.6956C6.1645 47.4956 12.4686 52.0883 17.5636 48.9884L26 43.8555L34.4364 48.9884C39.5314 52.0884 45.8355 47.4956 44.4466 41.6956L42.1622 32.1561L49.6367 25.7783C54.1811 21.9006 51.7715 14.4644 45.8165 13.9888L35.9814 13.2034Z" fill="#173334"/>
</svg>
